<?xml version="1.0" standalone="no"?>
<!DOCTYPE svg PUBLIC "-//W3C//DTD SVG 1.1//EN" "http://www.w3.org/Graphics/SVG/1.1/DTD/svg11.dtd">
<svg xmlns="http://www.w3.org/2000/svg" id="Layer_1" data-name="Layer 1" viewBox="0 0 160 160" width="160" height="160">
  <defs>
    <style>
      .cls-1 {
        fill: none;
      }

      .cls-2 {
        fill: red;
      }
    </style>
  </defs>
  <g>
    <path class="cls-2" d="M124.25,48.75v16.41h-26.62v-16.41h-11.3v-.02h-12.57c8.38,1.28,15.95,5.79,15.95,17.35,0,7.27-3.54,14.08-10.26,15.9,1.16.87,3.32,3.2,10.58,10.93l3.1,4h4.51v-17.85h26.62v17.85h16.67v-48.15h-16.67Z"/>
    <path class="cls-2" d="M67.79,96.83l-9.37-11.93h-22.29v11.93h-17.05v-25.16h44.64c4.06,0,6.27-1.37,6.27-4.53s-2.21-4.39-6.27-4.39H19.16l11.14-14.02h31.29c11.14,0,26.12,3.24,26.12,17.47,0,7.19-4.35,13.52-12.03,15.31,1.33.86,4.65,3.74,11.36,11.36l3.54,3.95h-22.8Z"/>
  </g>
  <g>
    <rect class="cls-1" x="16.92" y="102.96" width="126.17" height="6.33"/>
    <path class="cls-2" d="M21.42,108.98l1.12-1.55h1.51c.36,0,.78,0,1.07.02-.16-.22-.41-.58-.61-.87l-1.08-1.59-2.83,4h-2.21l3.86-5.45c.25-.35.62-.68,1.21-.68s.93.3,1.19.68l3.76,5.45h-7Z"/>
    <path class="cls-2" d="M36.11,106.35c0,1.82-1.25,2.73-3.75,2.73-2.9,0-4.15-.91-4.15-2.73v-3.39h1.85v3.39c0,.89.38,1.18,2.3,1.18,1.43,0,1.88-.33,1.88-1.18v-3.39h1.87v3.39Z"/>
    <path class="cls-2" d="M44.55,102.96l-1.21,1.57h-2.15v4.46h-1.86v-4.46h-2.83l1.21-1.57h6.84Z"/>
    <path class="cls-2" d="M52.78,105.97c0,2.15-1.48,3.11-4.4,3.11s-4.4-.96-4.4-3.11,1.47-3.11,4.4-3.11,4.4.95,4.4,3.11ZM50.93,105.97c0-1.3-.67-1.54-2.55-1.54s-2.55.24-2.55,1.54.68,1.55,2.55,1.55,2.55-.25,2.55-1.55Z"/>
    <path class="cls-2" d="M54.57,102.96l2.71,4,2.83-4h2.2l-3.85,5.45c-.26.35-.63.67-1.21.67s-.93-.3-1.19-.67l-3.77-5.45h2.29Z"/>
    <path class="cls-2" d="M69.87,107.43l-1.2,1.55h-5.8v-6.02h6.98l-1.21,1.57h-3.9v.72h4.77l-1.07,1.37h-3.7v.82h5.12Z"/>
    <path class="cls-2" d="M78.96,108.98h-2.49l-1.34-1.59h-2.86v1.59h-1.86v-3.08h5.24c.58,0,1.03-.26,1.03-.67,0-.47-.39-.7-1.03-.7h-5.24l1.21-1.57h3.87c1.37,0,3.1.43,3.1,2.15,0,.94-.58,1.71-1.58,1.91.21.15.43.37.85.79l1.11,1.17Z"/>
    <path class="cls-2" d="M83.69,105.2c.53.93.76,1.38.97,1.8.2-.42.43-.86.96-1.79l.96-1.71c.22-.39.54-.64,1.03-.64s.88.27,1.04.83l1.52,5.29h-1.86l-.57-2.1c-.19-.68-.32-1.17-.41-1.66-.2.42-.42.88-.84,1.67l-.81,1.51c-.32.59-.62.67-1.07.67s-.76-.08-1.07-.67l-.81-1.52c-.44-.83-.66-1.25-.85-1.66-.09.48-.22.98-.41,1.66l-.57,2.1h-1.83l1.56-5.29c.16-.56.58-.83,1.05-.83s.8.24,1.02.64l.96,1.7Z"/>
    <path class="cls-2" d="M92.67,108.98h-1.86v-6.02h1.86v6.02Z"/>
    <path class="cls-2" d="M101.22,102.96l-1.21,1.57h-2.15v4.46h-1.86v-4.46h-2.83l1.21-1.57h6.84Z"/>
    <path class="cls-2" d="M109.17,102.96l-1.21,1.57h-2.15v4.46h-1.86v-4.46h-2.83l1.21-1.57h6.84Z"/>
    <path class="cls-2" d="M116.18,107.43l-1.21,1.55h-5.32v-6.02h1.86v4.47h4.66Z"/>
    <path class="cls-2" d="M124.53,106.35c0,1.82-1.25,2.73-3.75,2.73-2.9,0-4.15-.91-4.15-2.73v-3.39h1.85v3.39c0,.89.38,1.18,2.3,1.18,1.43,0,1.88-.33,1.88-1.18v-3.39h1.87v3.39Z"/>
    <path class="cls-2" d="M130.85,108.76l-3.69-3.31v3.54h-1.69v-5c0-.8.49-1.13,1.02-1.13.22,0,.45.05.75.32l3.69,3.31v-3.54h1.7v4.99c0,.8-.49,1.13-1.03,1.13-.23,0-.46-.05-.75-.32Z"/>
    <path class="cls-2" d="M137.34,105.22h3.85v3.76h-4.13c-2.09,0-3.63-1.32-3.63-3.07s1.54-2.95,3.63-2.95h4.31l-1.21,1.57h-3.11c-1.01,0-1.77.61-1.77,1.47s.74,1.44,1.77,1.44h2.28v-.87h-3.12l1.12-1.34Z"/>
  </g>
</svg>